<?xml version="1.0" encoding="iso-8859-1"?>
<!-- Generator: Adobe Illustrator 18.1.1, SVG Export Plug-In . SVG Version: 6.00 Build 0)  -->
<svg version="1.1" id="Capa_1" xmlns="http://www.w3.org/2000/svg" xmlns:xlink="http://www.w3.org/1999/xlink" x="0px" y="0px"
	 viewBox="0 0 25.786 25.786" style="enable-background:new 0 0 25.786 25.786;" xml:space="preserve">
<g>
	<path style="fill:#030104;" d="M4.893,0C2.235,0,0.081,2.154,0.081,4.812s3.928,7.397,3.928,10.973h1.83
		C5.838,12.222,9.706,7.252,9.706,4.812C9.706,2.154,7.551,0,4.893,0z M4.893,6.91c-1.157,0-2.097-0.94-2.097-2.098
		s0.94-2.098,2.097-2.098S6.99,3.654,6.99,4.812S6.05,6.91,4.893,6.91z"/>
	<path style="fill:#030104;" d="M20.893,10c-2.658,0-4.813,2.154-4.813,4.813s3.928,7.397,3.928,10.973h1.83
		c0-3.563,3.867-8.532,3.867-10.973C25.706,12.154,23.551,10,20.893,10z M20.893,16.91c-1.157,0-2.098-0.939-2.098-2.098
		s0.94-2.098,2.098-2.098s2.098,0.939,2.098,2.098S22.05,16.91,20.893,16.91z"/>
</g>
<g>
</g>
<g>
</g>
<g>
</g>
<g>
</g>
<g>
</g>
<g>
</g>
<g>
</g>
<g>
</g>
<g>
</g>
<g>
</g>
<g>
</g>
<g>
</g>
<g>
</g>
<g>
</g>
<g>
</g>
</svg>
