<?xml version="1.0" encoding="iso-8859-1"?>
<!-- Generator: Adobe Illustrator 19.0.0, SVG Export Plug-In . SVG Version: 6.00 Build 0)  -->
<svg version="1.1" id="Layer_1" xmlns="http://www.w3.org/2000/svg" xmlns:xlink="http://www.w3.org/1999/xlink" x="0px" y="0px"
	 viewBox="0 0 512 512" style="enable-background:new 0 0 512 512;" xml:space="preserve">
<g>
	<polygon style="fill:#2D2D2D;" points="85.56,348.096 65.56,348.096 65.56,249.224 289.544,249.224 289.544,167.96 152.84,167.96 
		152.84,78.888 384.104,78.888 384.104,98.888 172.84,98.888 172.84,147.96 309.544,147.96 309.544,269.224 85.56,269.224 	"/>
	<path style="fill:#2D2D2D;" d="M427.208,209.16C420.472,200.216,361,120.824,361,81.336c0-47.448,29.616-78.112,75.496-78.112
		S512,33.888,512,81.336c0,39.552-59.472,118.936-66.264,127.824l-9.232,12.192L427.208,209.16z"/>
</g>
<circle style="fill:#FFFFFF;" cx="436.56" cy="81.856" r="24.448"/>
<path style="fill:#DB2B42;" d="M66.208,496.584C59.472,487.64,0,408.248,0,368.76c0-47.448,29.616-78.112,75.496-78.112
	s75.496,30.664,75.496,78.112c0,39.552-59.472,118.936-66.264,127.824l-9.232,12.192L66.208,496.584z"/>
<circle style="fill:#FFFFFF;" cx="75.56" cy="369.28" r="24.448"/>
<g>
</g>
<g>
</g>
<g>
</g>
<g>
</g>
<g>
</g>
<g>
</g>
<g>
</g>
<g>
</g>
<g>
</g>
<g>
</g>
<g>
</g>
<g>
</g>
<g>
</g>
<g>
</g>
<g>
</g>
</svg>
